<svg xmlns="http://www.w3.org/2000/svg" width="1024" height="1024" viewBox="0 0 1024 1024" role="img" aria-labelledby="title desc">
  <title id="title">Aino application icon</title>
  <desc id="desc">A cobalt and indigo rounded-square icon with a luminous A-shaped agent mark.</desc>
  <defs>
    <linearGradient id="bg" x1="104" y1="72" x2="904" y2="952" gradientUnits="userSpaceOnUse">
      <stop offset="0" stop-color="#176BFF"/>
      <stop offset="0.52" stop-color="#0053FD"/>
      <stop offset="1" stop-color="#3320A8"/>
    </linearGradient>
    <radialGradient id="halo" cx="0" cy="0" r="1" gradientTransform="translate(252 156) rotate(42) scale(500)">
      <stop stop-color="#7DEBFF" stop-opacity="0.42"/>
      <stop offset="1" stop-color="#7DEBFF" stop-opacity="0"/>
    </radialGradient>
    <linearGradient id="mark" x1="292" y1="258" x2="744" y2="760" gradientUnits="userSpaceOnUse">
      <stop stop-color="#FFFFFF"/>
      <stop offset="0.72" stop-color="#F4F8FF"/>
      <stop offset="1" stop-color="#BEEFFF"/>
    </linearGradient>
    <filter id="shadow" x="-20%" y="-20%" width="140%" height="150%" color-interpolation-filters="sRGB">
      <feDropShadow dx="0" dy="24" stdDeviation="24" flood-color="#07113D" flood-opacity="0.34"/>
    </filter>
    <filter id="softGlow" x="-80%" y="-80%" width="260%" height="260%" color-interpolation-filters="sRGB">
      <feGaussianBlur stdDeviation="12"/>
    </filter>
    <clipPath id="tileClip">
      <rect x="48" y="48" width="928" height="928" rx="224"/>
    </clipPath>
  </defs>

  <rect x="48" y="48" width="928" height="928" rx="224" fill="#07113D" filter="url(#shadow)"/>
  <g clip-path="url(#tileClip)">
    <rect x="48" y="48" width="928" height="928" fill="url(#bg)"/>
    <rect x="48" y="48" width="928" height="928" fill="url(#halo)"/>
    <path d="M-80 864C164 704 246 842 460 754s382-260 702-62v360H-80Z" fill="#120B5A" opacity="0.2"/>
    <path d="M64 208C286 106 502 134 706 68s284-26 362 22v-84H64Z" fill="#8AF2FF" opacity="0.08"/>
  </g>

  <rect x="64" y="64" width="896" height="896" rx="208" fill="none" stroke="#FFFFFF" stroke-opacity="0.18" stroke-width="8"/>

  <g filter="url(#shadow)" fill="none" stroke="url(#mark)" stroke-linecap="round" stroke-linejoin="round">
    <path d="M278 758 444 304c22-60 50-92 68-92s46 32 68 92l166 454" stroke-width="104"/>
    <path d="M366 574h292" stroke-width="92"/>
  </g>

  <path d="M366 574h292" stroke="#8CEEFF" stroke-linecap="round" stroke-width="28" opacity="0.92"/>

  <circle cx="744" cy="246" r="34" fill="#A6F4FF" opacity="0.34" filter="url(#softGlow)"/>
  <circle cx="744" cy="246" r="22" fill="#D7FAFF"/>
  <circle cx="744" cy="246" r="9" fill="#FFFFFF"/>
  <path d="M682 338c52-30 92-72 112-124" fill="none" stroke="#A6F4FF" stroke-linecap="round" stroke-width="10" opacity="0.7"/>
</svg>
