<svg xmlns="http://www.w3.org/2000/svg" width="1145" height="196" viewBox="0 0 1145 196" role="img" aria-labelledby="title desc">
  <title id="title">Aino</title>
  <desc id="desc">Aino agent workspace wordmark.</desc>
  <defs>
    <linearGradient id="background" x1="0" y1="0" x2="1145" y2="196" gradientUnits="userSpaceOnUse">
      <stop stop-color="#0B1220"/>
      <stop offset="1" stop-color="#17264A"/>
    </linearGradient>
    <linearGradient id="tile" x1="26" y1="24" x2="170" y2="172" gradientUnits="userSpaceOnUse">
      <stop stop-color="#2E7DFF"/>
      <stop offset="1" stop-color="#0053FD"/>
    </linearGradient>
    <linearGradient id="wordmark" x1="222" y1="48" x2="620" y2="148" gradientUnits="userSpaceOnUse">
      <stop stop-color="#FFFFFF"/>
      <stop offset="1" stop-color="#B9D8FF"/>
    </linearGradient>
    <filter id="shadow" x="-20%" y="-20%" width="140%" height="160%">
      <feDropShadow dx="0" dy="10" stdDeviation="12" flood-color="#000814" flood-opacity="0.42"/>
    </filter>
  </defs>

  <rect width="1145" height="196" rx="20" fill="url(#background)"/>
  <path d="M760 0h385v196H900c-26-50-74-92-140-116V0Z" fill="#2E7DFF" opacity="0.08"/>
  <path d="M0 166c162-44 286-4 422-36 118-28 194-78 310-66 82 8 139 54 206 132H0v-30Z" fill="#0053FD" opacity="0.08"/>

  <rect x="24" y="24" width="148" height="148" rx="40" fill="url(#tile)" filter="url(#shadow)"/>
  <g transform="translate(24 24) scale(2.3125)">
    <path d="M13 48 28.4 16h7.2L51 48h-7.4l-3.2-7.5H23.6L20.4 48H13Zm13.4-14h11.2L32 21.2 26.4 34Z" fill="#F8FAFF"/>
    <circle cx="47" cy="16" r="4.5" fill="#E3EDFF"/>
  </g>

  <text x="218" y="122" fill="url(#wordmark)" font-family="Inter, -apple-system, BlinkMacSystemFont, 'Segoe UI', sans-serif" font-size="108" font-weight="750" letter-spacing="8">AINO</text>
  <text x="224" y="157" fill="#9DB7E8" font-family="Inter, -apple-system, BlinkMacSystemFont, 'Segoe UI', sans-serif" font-size="16" font-weight="650" letter-spacing="5">AGENT WORKSPACE</text>
  <circle cx="1090" cy="46" r="7" fill="#8FE7FF" opacity="0.9"/>
  <circle cx="1115" cy="46" r="4" fill="#B9D8FF" opacity="0.7"/>
</svg>
